<?xml version="1.0" encoding="UTF-8"?><svg id="Layer_1" xmlns="http://www.w3.org/2000/svg" width="792" height="612" viewBox="0 0 792 612"><defs><style>.cls-1{fill:#fff;}</style></defs><path class="cls-1" d="m147.97,281.19h127.15v135.86c0,30-9.04,52.58-27.12,67.72-18.08,15.14-37.25,22.71-57.51,22.71h-85.03c-23.18,0-43.08-8.88-59.7-26.64-16.62-17.76-24.93-39.02-24.93-63.79v-226.72c0-24.34,8.18-45.5,24.54-63.47,16.36-17.97,36.39-26.96,60.1-26.96h85.03c53.24,0,81.45,30.14,84.63,90.43h-42.52c-3.31-30-17.35-45-42.12-45h-42.52c-11.66,0-21.65,4.42-30,13.27-8.34,8.85-12.52,19.42-12.52,31.74v226.72c0,12.46,4.17,23.07,12.52,31.84,8.34,8.78,18.34,13.16,30,13.16,27.02-1.41,41.19-16.42,42.52-45v-90.86h-42.52v-45Z"/><path class="cls-1" d="m359.74,507.48V99.91h169.66c23.18,0,43.08,8.92,59.7,26.75,16.62,17.83,24.93,39.06,24.93,63.68v22.93c0,26.47-7.05,47.27-21.16,62.41-14.1,15.15-35.26,24.49-63.47,28.02,28.21,0,49.37,9.09,63.47,27.28,14.11,18.19,21.16,39.24,21.16,63.15v22.93c0,24.49-8.38,45.68-25.13,63.58-16.76,17.9-36.59,26.85-59.5,26.85h-169.66Zm84.63-226.29h42.51c11.52,0,21.49-4.49,29.9-13.48,8.41-8.99,12.62-19.64,12.62-31.95v-45.43c0-12.31-4.21-22.89-12.62-31.74-8.41-8.84-18.38-13.27-29.9-13.27h-42.51v135.86Zm0,180.86h42.51c11.52,0,21.49-4.46,29.9-13.37,8.41-8.92,12.62-19.46,12.62-31.63v-45.43c0-30.28-14.17-45.43-42.51-45.43h-42.51v135.86Z"/><path class="cls-1" d="m698.67,507.48v-90.43h84.63v90.43h-84.63Z"/></svg>