<?xml version="1.0" encoding="utf-8"?>
<!-- Generator: Adobe Illustrator 27.5.0, SVG Export Plug-In . SVG Version: 6.00 Build 0)  -->
<svg version="1.1" id="Layer_1" xmlns="http://www.w3.org/2000/svg" xmlns:xlink="http://www.w3.org/1999/xlink" x="0px" y="0px"
	 viewBox="0 0 698.5 407.6" style="enable-background:new 0 0 698.5 407.6;" xml:space="preserve">
<style type="text/css">
	.st0{fill:#FFFFFF;}
</style>
<g>
	<g>
		<path class="st0" d="M127.1,181.3h127.1v135.9c0,30-9,52.6-27.1,67.7c-18.1,15.1-37.2,22.7-57.5,22.7h-85
			c-23.2,0-43.1-8.9-59.7-26.6S0,341.9,0,317.1V90.4C0,66.1,8.2,44.9,24.5,27S60.9,0,84.6,0h85c53.2,0,81.5,30.1,84.6,90.4h-42.5
			c-3.3-30-17.4-45-42.1-45h-42.5c-11.7,0-21.7,4.4-30,13.3c-8.3,8.9-12.5,19.4-12.5,31.7v226.7c0,12.5,4.2,23.1,12.5,31.8
			c8.3,8.8,18.3,13.2,30,13.2c27-1.4,41.2-16.4,42.5-45v-90.9h-42.5V181.3L127.1,181.3z"/>
		<path class="st0" d="M338.9,407.6V0h169.7c23.2,0,43.1,8.9,59.7,26.8s24.9,39.1,24.9,63.7v22.9c0,26.5-7,47.3-21.2,62.4
			c-14.1,15.1-35.3,24.5-63.5,28c28.2,0,49.4,9.1,63.5,27.3c14.1,18.2,21.2,39.2,21.2,63.1v22.9c0,24.5-8.4,45.7-25.1,63.6
			c-16.8,17.9-36.6,26.9-59.5,26.9L338.9,407.6L338.9,407.6z M423.5,181.3H466c11.5,0,21.5-4.5,29.9-13.5c8.4-9,12.6-19.6,12.6-31.9
			V90.4c0-12.3-4.2-22.9-12.6-31.7c-8.4-8.8-18.4-13.3-29.9-13.3h-42.5L423.5,181.3L423.5,181.3z M423.5,362.2H466
			c11.5,0,21.5-4.5,29.9-13.4c8.4-8.9,12.6-19.5,12.6-31.6v-45.4c0-30.3-14.2-45.4-42.5-45.4h-42.5L423.5,362.2L423.5,362.2z"/>
	</g>
	<path class="st0" d="M613.8,407.6v-90.4h84.6v90.4H613.8z"/>
</g>
</svg>
